<?xml version="1.0" encoding="UTF-8" standalone="no"?>
<!DOCTYPE svg PUBLIC "-//W3C//DTD SVG 1.1//EN" "http://www.w3.org/Graphics/SVG/1.1/DTD/svg11.dtd">
<svg width="32px" height="32px" version="1.1" xmlns="http://www.w3.org/2000/svg" xmlns:xlink="http://www.w3.org/1999/xlink" xml:space="preserve" xmlns:serif="http://www.serif.com/" style="fill-rule:evenodd;clip-rule:evenodd;stroke-linejoin:round;stroke-miterlimit:2;">
    <path d="M29.6,23.511L18.669,4.528C18.114,3.582 17.096,3 16,3C14.904,3 13.886,3.582 13.331,4.527L2.4,23.511C1.866,24.426 1.866,25.562 2.4,26.476C2.948,27.428 3.971,28.011 5.069,28L26.931,28C28.028,28.01 29.05,27.427 29.597,26.476C30.133,25.562 30.134,24.426 29.6,23.511ZM15,13C15,12.451 15.451,12 16,12C16.549,12 17,12.451 17,13L17,18C17,18.549 16.549,19 16,19C15.451,19 15,18.549 15,18L15,13ZM16,24C15.177,24 14.5,23.323 14.5,22.5C14.5,21.677 15.177,21 16,21C16.823,21 17.5,21.677 17.5,22.5C17.5,23.323 16.823,24 16,24Z" style="fill:rgb(239,68,68);fill-rule:nonzero;"/>
</svg>
