<?xml version="1.0" encoding="UTF-8" standalone="no"?>
<!DOCTYPE svg PUBLIC "-//W3C//DTD SVG 1.1//EN" "http://www.w3.org/Graphics/SVG/1.1/DTD/svg11.dtd">
<svg width="40px" height="40px" version="1.1" xmlns="http://www.w3.org/2000/svg" xmlns:xlink="http://www.w3.org/1999/xlink" xml:space="preserve" xmlns:serif="http://www.serif.com/" style="fill-rule:evenodd;clip-rule:evenodd;stroke-linejoin:round;stroke-miterlimit:2;">
    <path d="M20,40C31.046,40 40,31.046 40,20L40,6C40,2.708 37.292,0 34,0L21,0L21,8.774C21,10.776 21.122,12.85 22.172,14.554C23.692,17.024 26.214,18.714 29.076,19.181L29.459,19.243C29.782,19.353 30,19.659 30,20C30,20.341 29.782,20.647 29.459,20.757L29.076,20.819C24.846,21.51 21.51,24.846 20.819,29.076L20.757,29.459C20.647,29.782 20.341,30 20,30C19.659,30 19.353,29.782 19.243,29.459L19.181,29.076C18.714,26.214 17.024,23.692 14.554,22.172C12.85,21.122 10.776,21 8.774,21L0.024,21C0.547,31.581 9.29,40 20,40ZM0,19L8.774,19C10.776,19 12.85,18.878 14.554,17.828C15.886,17.007 17.007,15.886 17.828,14.554C18.878,12.85 19,10.776 19,8.774L19,0L6,0C2.708,0 0,2.708 0,6L0,19Z"/>
</svg>
